<svg xmlns="http://www.w3.org/2000/svg" viewBox="0 0 512 512">
  <defs>
    <linearGradient id="bg" x1="0" y1="0" x2="1" y2="1">
      <stop offset="0%" stop-color="#111827"/>
      <stop offset="100%" stop-color="#060a13"/>
    </linearGradient>
    <linearGradient id="blue" x1="0" y1="0" x2="1" y2="1">
      <stop offset="0%" stop-color="#60a5fa"/>
      <stop offset="100%" stop-color="#2563eb"/>
    </linearGradient>
  </defs>

  <!-- Background -->
  <rect width="512" height="512" rx="112" fill="url(#bg)"/>

  <!-- Bold "R" letterform -->
  <path d="
    M 148 390 L 148 122
    Q 148 108 162 108
    L 290 108
    Q 364 108 364 182
    Q 364 240 310 258
    L 372 384
    Q 376 394 366 400
    L 336 400
    Q 324 400 318 388
    L 262 268
    L 208 268
    L 208 390
    Q 208 404 194 404
    L 162 404
    Q 148 404 148 390
    Z
    M 208 212 L 280 212
    Q 304 212 304 182
    Q 304 164 280 164
    L 208 164
    Z
  " fill="#e2e8f0" fill-rule="evenodd"/>

  <!-- Accent dot -->
  <circle cx="382" cy="392" r="28" fill="url(#blue)"/>
  <circle cx="382" cy="392" r="40" fill="none" stroke="#3b82f6" stroke-width="3" opacity="0.3"/>
</svg>
